<?xml version="1.0" encoding="utf-8"?><svg viewBox="0 0 1706.667 1706.667" xmlns="http://www.w3.org/2000/svg" xmlns:xlink="http://www.w3.org/1999/xlink"><style>:root>svg{display:none}:root>svg:target{display:block}</style><svg version="1.0" viewBox="0 0 1066 1280" id="1770788" xmlns="http://www.w3.org/2000/svg"><path d="M813.9 49.9c-16.7 7.1-33 22-61.5 56-9.8 11.7-18.7 22.5-19.8 23.8-1 1.3-4.5 3.8-7.9 5.4-7.5 3.8-11.1 3.6-22.3-1.5-22-9.9-53.1-12.4-76.9-6.3-25.5 6.6-70.9 15.7-78.3 15.7-3.2 0-3.4-.2-3-3 .3-1.7.3-3 0-3-.2 0-7.8 3.6-16.9 8-14.3 6.9-17.4 8.8-23.6 14.8-14.2 13.5-21.7 19.5-23 18.5-.6-.5-3.8-3.1-7-5.6-3.2-2.6-9.8-6.8-14.5-9.3-4.8-2.6-15-8.4-22.7-12.9-26.6-15.6-38.3-20.6-53.8-22.5-4.8-.6-11-.8-13.6-.4-4.6.6-5.3 1.1-9.9 6.8-9.9 12.2-13.9 22.2-16.7 42.1-.9 6-2 12.9-2.6 15.3-1.7 7.7-3.9 29.5-3.9 38.8 0 28.2 11.4 64.4 36.2 114.7l9.8 19.8-.2 26.7c-.2 29.1.2 32.2 6.1 52.1 1.8 6 3.1 12.6 3.1 15.8 0 10.8-6.7 23.8-18.8 36.5l-7.4 7.7 4.4 1.1c6.1 1.6 6.8 1.8 6.8 2.8 0 .4-4.5 4.5-10 9.1-5.5 4.5-10 8.9-10 9.7 0 .8.7 4 1.6 7.2l1.6 5.9-4.9 4.9c-4.8 4.8-5.1 5.4-7.6 16.1-3.4 14.4-6.7 20.9-22.2 42.8-16.5 23.3-23.5 33.7-27.1 40.5-1.9 3.6-7.7 10.3-16.5 19.2-14.3 14.4-24.2 26.6-35.1 43.3-45 68.8-64.3 98.9-74.2 116.2-2.6 4.6-5.2 8.5-5.7 8.8-.5.4-2.7-2.1-4.8-5.5-4.2-6.4-7.5-15.3-8.6-23-1.3-9.3-6.5-12.1-10.4-5.5-1.8 3.1-2.4 3.4-4.1 2.5-3.1-1.7-6.9-7.9-9-15.1-3.9-12.9-9.1-17.1-11.7-9.4-.7 2.2-3.7 7-6.7 10.6-9.4 11.8-20.8 36.9-22.2 49.5-.5 3.9-1.2 5.5-2.4 5.9-7 2.2-.3 37.1 11.2 58.6 2.2 4.1 2.3 5.8 2.9 27.9 1.3 44.9 4.7 70 13.5 97.1 10.4 32.2 24.9 57.6 46.9 81.9 4.2 4.7 11.5 13.8 16.2 20.2 4.6 6.5 10 13.1 11.9 14.8 6.9 6 36.9 19.4 47.3 21.1 7.6 1.2 15.7.4 22.5-2.3 7.1-2.7 23.7-4.1 43.1-3.5 12.2.4 18.3 1 21.5 2.2 3.6 1.3 6.4 1.5 14.5 1 8.8-.6 10.6-.4 15.3 1.4 2.9 1.2 7.4 2.1 10 2.1 6.3 0 14 2 30.2 7.5l13.5 4.7 14.5-.6c15.6-.6 24.7-1.8 49-6.6 26.2-5.2 40.3-6.6 53.3-5.2 6.2.6 15 2.1 19.6 3.3 9.2 2.3 12.7 2.2 28.1-.6 9.5-1.7 12.9-4.1 16.1-11 2.6-5.7 2.4-9.4-1.6-23.5-1.9-6.8-3.3-12.5-3.2-12.7.2-.1 1.8 4.1 3.6 9.5 4.3 12.5 18.1 40.7 26.8 54.5 15.2 24 36 48.8 42.1 50.2 1.5.3 8.2-.6 15-2 7.4-1.5 15.6-2.5 20.5-2.5 4.5 0 9.3-.1 10.7-.2 1.4-.1 5.3.2 8.7.7l6.1.7 1.6-3c.9-1.7 1.6-4.1 1.6-5.3 0-1.4.5-1.9 1.4-1.6 5.5 2.1 17.2-7.1 19.5-15.5.8-3 1.4-11.9 1.4-25.1l.2-20.6-3.3-3.3c-1.7-1.9-7.8-5.9-13.4-8.9-10.8-5.7-18.9-12.9-23.3-20.4-3.1-5.3-5.2-16-7.6-38.9-1.1-10.4-2.2-19.3-2.5-19.8-.8-1.2 3.2-5.4 7.6-8 1.9-1.2 6.7-5.5 10.5-9.5 4.2-4.4 7.8-7.3 9-7.3 1.6 0 2.8-1.8 5.5-8.2 3.6-8.6 5.9-10.6 7.7-6.6.9 2.1 1.1 1.8 2.3-3.1 1.7-7.2 5.8-11.6 14.5-15.6 3.9-1.8 8.1-4.4 9.2-5.8 1.7-2.2 2.6-2.5 5.7-2 2 .3 3.6 1 3.6 1.5 0 .6 1.8 5 3.9 9.8 11.3 25.1 17.6 50.1 20.6 81.8 1.9 20 1.9 30.7 0 39.2-.8 3.6-1.4 8.6-1.5 11.1 0 4.5.3 4.9 6.3 10.6 3.5 3.3 7.7 6.5 9.4 7.2 2.3.9 3.9 3 6.7 8.6 7.5 15 17 19.1 34.7 14.8l6.8-1.6 4.6 4.2c6.3 5.8 11.6 8.1 19.1 8.1 8.1 0 14.4-3.2 23-11.9 4.4-4.5 8-7.3 10.5-8 5.2-1.6 8.9-7.2 10.4-16.2.7-3.5-4.7-22.8-16.5-59.5-4.4-13.7-7-27.1-10-52.4-1.1-9.6-2.8-22.2-3.6-28-2.2-15-2.9-41-1.5-58.5 1.5-19.3 4.5-43 13.7-108 4.1-29.4 5.9-35 13.3-42.2 5.3-5.2 5.9-8.5 7.1-41.8 1.2-33.8 1.7-37.6 8.7-62.9 14.3-52.4 14.8-74.1 2.4-106.1-4.2-10.8-5.8-17.9-9.1-40.5-3-20.1-7.5-39.8-11.7-50.5-8.4-21.9-11.3-31.1-12.3-40.5-1.3-12.1-3.3-18.9-7.7-27-3.2-5.8-3.4-6.7-2.4-10 .6-1.9 2-10.3 3.1-18.5 3.3-23.9 6.9-44.4 9.2-52.5 5.5-19.7 5.5-24-.1-31-1.5-1.9-3-4-3.4-4.6-.3-.6-1.6-8.3-2.7-17-4.4-34.2-8.8-47.4-19.5-59.3l-3.4-3.7 3-9.4c6.8-21.1 8.7-37.7 7-59.5-2.2-27.4-6.4-49-13.6-71.1-9.7-29.8-22.8-49.2-38.1-56.5-7.7-3.6-11.1-3.6-19.5 0zm19.7 27.2c3.4 2 9.9 9.9 14.2 17 4.5 7.4 12.6 40.6 15.7 64.2 2 15.5 2 39-.1 49.8-1.7 9.2-7.5 22.9-9.7 22.9-.7 0-2.9-1.7-4.9-3.8-5.3-5.4-17.8-22.4-17.8-24.2 0-4.3 3.4-13.9 6.2-17.4 2.4-3 2.7-3.7 1.2-3.3-9.4 2.8-13.6 3.8-14.4 3.5-.6-.2 2-5.3 5.6-11.3 3.7-6.1 6.9-11.7 7.2-12.5.3-.8-3.2 1.8-7.8 5.7-4.6 4-8.6 7.1-8.8 6.9-.2-.2.6-8.5 1.7-18.5 1.2-10 2.1-18.9 2-19.9 0-.9-2.2 4.8-4.9 12.7-2.8 7.9-5.2 14.6-5.4 14.8-.2.3-.8-2.2-1.1-5.4-.4-3.2-1-7.6-1.4-9.8l-.7-4-4.4 11.2c-2.5 6.1-4.8 11-5.1 10.7-.3-.2-1.2-3.7-1.9-7.9-.7-4.1-1.6-7.5-1.9-7.5-.4 0-2.1 4-4 8.9l-3.3 9-5.2 1.2c-7.6 1.7-22.2.8-27.1-1.6-4-2-4-2.1-4.9-9.3-1.5-12.7-.5-15.4 12.9-35.2 14.6-21.5 27.5-35.1 36.9-39 3.2-1.4 9.3-4.2 13.5-6.2 8.8-4.2 13-4.6 17.7-1.7zM393.2 162c21.7 7.3 55.6 28.4 75 46.8 5.3 5.1 6.7 7.9 3.3 6.6-.9-.4-2.9.8-4.9 2.8-5.1 5.1-6.9 16.8-4.6 30.3.4 2.7.7 5.1.5 5.3-.2.2-1.8-1.7-3.6-4.3-3.7-5.1-5.3-5.3-5.7-.7-.5 5.3-1.8 3.7-3.7-4.8-1-4.4-2.2-8-2.6-8-.4 0-1.8 3.1-3 7-1.3 3.8-2.6 7-3 7-.4 0-2.9-3.8-5.5-8.5-2.7-4.7-5.2-8.5-5.6-8.5-.5 0-.8 3.1-.8 7 0 3.8-.2 7-.5 7s-5.6-4.5-11.8-9.9c-6.1-5.5-11.3-9.8-11.5-9.7-.1.2 1.2 3.4 2.9 7.2 1.7 3.8 4 8.9 5 11.3l2 4.4-7.3-.6-7.3-.7 2.6 2.3c1.4 1.2 3.9 3.2 5.5 4.3l2.9 2.2-4.2 1.1-4.3 1.2 2.6 6.7c2 4.9 3 10.4 3.9 20.7 1.3 13 1.2 14.3-.5 19.3-2.3 6.6-6 13-9.2 16l-2.4 2.2-7.2-9.7c-11.8-16.1-24.1-45.1-28.2-66.2-5-26.1-2.7-60.4 6-86.5l1.2-3.6h7.5c5.7 0 9.7.7 16.5 3zm328.1 115.1.6 2.1 3.4-2.1c1.9-1.1 3.7-2.1 4-2.1.3 0 1 1.4 1.6 3.1 1 2.8 1.4 3 5.2 2.7l4.1-.3 3.8 9.2c3.1 7.4 3.9 10.6 4.1 16.5l.2 7.3-8.6 17.5c-9.6 19.5-14.5 26-21.6 28.1-6.1 1.8-10.7 0-17.9-6.9-7.2-6.9-8.6-10.7-8.6-23.7-.1-12.8 5-28.2 13.9-42 3.5-5.6 3.6-5.7 5.6-3.9 1.3 1.2 2.3 1.5 2.7.7 3-4.5 5.8-8.3 6.3-8.3.4 0 .9 1 1.2 2.1zm-155.2 29.5c2.4 1.2 3.7 1.3 6.3.4 2.6-.8 4.3-.7 8.2.6 13.5 4.5 22.2 11.7 24.8 20.4 3.5 11.8 2.9 30.1-1.4 39.7-2.4 5.5-6.3 7.3-15.6 7.3-9 0-17.6-2.3-32.2-8.6-4.4-1.9-13.4-10.4-18.9-17.9-5-6.7-4.9-6-1.6-23.3 1.5-7.9 1.7-8.2 4.2-8 2.3.3 2.6-.1 2.9-3.5.3-3.5.5-3.7 3.8-3.7 2.5 0 3.4-.4 3.4-1.6 0-1.7 2.8-1.6 7.2.1 1.1.4 2.1 0 3-1.4 1.5-2.5 2-2.6 5.9-.5zm308.1 12.1c2.8 3.2 6.6 11.9 10.8 24.4 5.3 15.8 5.2 21.6-.4 36.4-3.2 8.3-3.9 11.7-4.6 21.5-.7 9.5-1.4 12.8-3.9 18.7-3.3 7.7-3.9 13.5-1.9 18.9 1.3 3.6 1.2 4.1-5.2 29.4-4.4 17.6-7 23.3-21.5 48-7.4 12.5-11 19.5-11.9 23.4-.6 2.6-6.6 9.6-21.9 25.6-7 7.4-44.4 41.3-51.9 47.1-3.2 2.5-8.7 5.5-12.1 6.7-5.2 1.8-29.4 7.1-46.7 10.3-8.1 1.5-43.1 2.1-62.2 1.1l-18.7-.9-8.3-4c-4.6-2.2-12.6-7.1-17.8-10.9-5.2-3.9-12.2-8.1-15.5-9.4-3.3-1.3-13.2-5.4-22-9.1-8.8-3.7-17.7-7-19.7-7.4-2.9-.6-5.5-2.4-11.4-8.6-6.6-6.7-8.3-7.9-12.6-8.8-6.2-1.4-9.5-3.1-15.1-7.8-2.4-2.1-8.6-7.2-13.6-11.3-12.7-10.3-18.6-17.7-21.2-26.5-3.4-11.8-6-18.3-8.1-20.2-2.1-1.8-2.1-1.8-1.5 2.4.3 2.4.3 4.3.1 4.3-1.3 0-15.4-17.6-15.4-19.3 0-1.2-3-4.9-7.3-9.1-8.8-8.7-14.1-18.1-15.7-28.1-.6-3.7-1.4-7.3-1.7-7.9-.4-.6.6 0 2.2 1.3l3 2.3.3-9.3c.4-13 .7-13.3 13.7-12.5 5.5.3 12 1.1 14.5 1.7 10.8 2.5 24.1 11.5 29.1 19.6 3.6 5.8 5.9 22 5.9 41.6 0 24.4.5 24.9 20.5 22.8 41.9-4.6 66.4-20.2 101-64.5 7.6-9.6 14.1-17.3 14.5-17.1.4.3 1.6 5.7 2.5 12.1 2 13 1.6 28.5-.9 38.9-1.4 5.7-1.4 6 1.1 11 1.4 2.7 2.8 5.2 3.2 5.5.3.3 1.9 2.2 3.5 4.4 2.8 3.7 3 3.8 8.2 3.4 4-.3 7.3-1.6 13.4-5.2l8.2-4.7 4 1.6 4 1.6 5.1-5.1 5-5h7.9c9.1 0 12-1.2 16.8-6.7 2-2.3 3.5-3.3 3.8-2.5 1.3 4.1 13.9 5.6 20.2 2.4 8.4-4.2 9.9-16.4 4.2-32.9-1.8-5-3.2-10.5-3.2-12.1 0-1.6-1.6-6.4-3.5-10.7-2-4.3-3.3-8-3.1-8.3.7-.6 10.3 3.2 19.1 7.6 3.9 1.9 9.5 4.3 12.5 5.4 3 1 7.2 3.2 9.2 4.8 2 1.7 4.1 3 4.6 3 3.6 0 15.9 15.4 22.2 28 8.1 16 11.1 32.9 7.5 41-1.4 3.1-1.5 4.3-.6 5.4 1.8 2.2 3.7.9 5.5-3.5 1.9-4.6 2-11 .5-23.4-1.7-14.2-5.4-20.8-24.3-43.5-5.9-7.1-9.1-11.6-8.2-11.8.7-.2 4.7.9 8.7 2.3 9 3.1 20.3 4.5 37.5 4.5 9.2 0 15.6.6 22 2 9.8 2.2 14 2.5 14.8 1.1.3-.5-.6-3.4-2-6.5-3.1-6.7-2.9-11 .4-11.4 1.3-.2 2.2-.7 2-1-4.2-7.7-8.1-22.5-9.7-36.2-1.3-11.3-3-32.4-2.6-32.8.2-.2 1.3 1.5 2.6 3.7 1.2 2.3 2.6 4.1 2.9 4.1.4 0 1-1.9 1.3-4.3 1.5-10.3 11.5-28.9 21.6-40 2.9-3.2 4.2-3.4 6.3-1zm-106.5 22.6c.3.4-1 .7-3 .7-7.8 0-13.8 2.1-18.5 6.4-7.6 6.9-12.6 20.8-10.7 29.6.4 1.7 2.1 4.8 3.8 6.7 2.4 2.7 2.7 3.3 1.1 2.5-1.8-.9-3.5-2.7-10.8-11.3-.7-.9-2-1.9-2.7-2.1-1.9-.7.5-5.6 8.7-18 7.2-10.9 9.9-13.2 17.4-15.1 4.9-1.3 13.1-.9 14.7.6zm35.5 7.8c1.7-.6 3.4-1.1 3.8-1.1 1.2 0 1.8 4.7.7 6.5-.5.9-1.7 5.6-2.7 10.4-2.2 10.9-4.5 15.4-10.8 21.3-6 5.6-12.4 7.9-23.7 8.3-7.2.3-7.5.3-2.5-.4 15.5-2.3 22-5.8 27.5-14.6 2.5-4 3-5.9 3-10.9 0-7.4-3.1-13.3-10.1-19.4l-4.5-4.1 8.1 2.5c6.7 2.1 8.7 2.3 11.2 1.5zm-35.1 12.8c4.2 4.2 4.3 5.2.6 10.4-1.6 2.3-2.4 2.7-4.8 2.3-1.6-.3-4.3-.9-6-1.2-2.3-.4-3.4-1.5-4.5-4-1.3-3-1.3-3.8.2-6.7 2.1-4 3.1-4.7 7.3-4.7 2.6 0 4.2.9 7.2 3.9zm-187.2 20.4c10.7 3.6 12.8 4.7 15.4 7.9l2.9 3.7-3.5 3.1c-2.8 2.4-3.8 4.3-4.8 8.8-1.6 8-4.5 15.2-7.5 18.7-1.8 2-2.4 2.4-1.9 1 3.4-8.8 5.7-19 5.8-25.2.2-6.2-.1-7.4-2.2-9.7-3.1-3.3-14.5-9.2-21.2-11l-5.4-1.5h5c3.3 0 9.1 1.4 17.4 4.2zm-49.4 10.2c-4.5 8.5-4.3 21.1.6 30.7 3.2 6.2 16.7 12.7 27.3 13.1 5.3.2 5.1 1.3-.3 2.2-12 2-34.8-10.7-36.7-20.4-.4-2-1.5-3.3-3.5-4.1-5.3-2.2-5.6-3.7-1.6-7.8 2-2 6.3-7 9.7-11 3.4-3.9 6.4-7.2 6.6-7.2.2 0-.7 2-2.1 4.5zm32.6 7.4c2.2 2.3 2.9 3.9 2.9 6.8 0 4.3-1.1 6.1-5.4 8.7-2.2 1.4-3.4 1.6-5.1.8-3.9-1.8-7-11.4-4.7-14.8.9-1.4 6.3-4.3 8-4.4.8 0 2.7 1.3 4.3 2.9zm277.5 215.6c1.6 2.4 1.6 3.2 0 11.1-3.9 19.9-15.6 49.3-26.9 67.4-5.1 8.1-32.3 38.3-36.6 40.4-1.4.8-4.1 1.7-5.8 2.1-1.8.3-4.3 1.9-5.5 3.5-3.5 4.2-6 5.2-8.6 3.4-3.1-2.2-2.8-6.4 1.3-18.6 3.3-9.7 13.4-30.9 17.8-37.2 2.4-3.5 10.3-8.6 13.2-8.6 2.9 0 8.2-5.8 14.8-16.2 3.1-4.7 7.6-10.9 10-13.6 2.5-2.8 5.4-7.5 6.6-10.6 2.6-7.1 9.8-21.6 11.9-23.9 2.2-2.5 5.9-2.1 7.8.8zm-327.5 22.3c2.4 1.5 5.6 3.3 7.1 3.9 1.5.7 5.4 4 8.5 7.4 12.4 13.3 14.1 14.9 15.6 14.9 1 0 1.4-.6 1.1-1.3-.3-.8.4-2.4 1.4-3.7 2.8-3.4 6.4-2.1 10.8 4 2 2.8 3.9 5 4.2 5 .4 0 1.6-.7 2.6-1.5 3-2.3 4.2-1.9 8.6 2.7l4 4.2 3-2.3c4.6-3.3 6.9-2.5 10.7 4l3.2 5.6 7.3.6c4.7.3 9.3 1.4 12.9 3 3 1.4 8.5 2.8 12.3 3.2 7.9.9 10.5 2.7 16 11 2 3 4.3 5.8 5 6.2 2.5 1.5 12.8 13.8 14.7 17.5 1.1 2.1 3.3 7.7 5.1 12.4l3.1 8.7-2.4 1.8c-3.5 2.7-7.5 2.3-11.7-1.1-4.9-3.9-10.7-5.8-22.9-7.5-22.1-3.2-29.7-5.7-39.8-13.3l-8.5-6.3-2.6 2c-3.5 2.8-4.9 2.6-11.6-1.2-9.2-5.2-20.3-14.5-30.2-25.3-16.2-17.8-39.7-52.2-38.2-56 .9-2.3 5.9-1.6 10.7 1.4zm387.3 64.8c0 5.1-1 9.9-3.7 18.1-4 12.1-4.6 18.6-2.2 21.3 1.4 1.6.9 2.2-6.4 7.9-7.4 5.7-19.1 17.5-19.1 19.2 0 1.9 2.2 1.8 6-.1 2.2-1.1 4-1.8 4-1.6 0 .3-2.3 4.4-5 9-4.6 7.9-12.3 18.4-20.2 28l-3.3 3.9 3.5-.6 3.5-.6-3.5 2.7c-16.1 12.7-19.2 16.2-19.4 22.4-.1 4.8-3.7 11.7-9.2 17.8-3.9 4.2-4.7 7.7-6.3 24.7-1.4 14.8-7 25.8-16.5 32.3-4.8 3.3-5.9 6.1-4.5 11.2 1.1 4.2 7.1 10.7 20.4 22.4l5.8 5 .4 14c.5 17.1.9 20 3.4 22.5 3.6 3.6 10.1 1.9 20.8-5.4 3.8-2.6 5.6-3.1 12.2-3.5 7.2-.4 7.9-.3 10.2 2 1.9 1.9 2.5 3.8 3 9.5.3 4 1.1 8.1 1.6 9.2.6 1.1 1.1 3.6 1.1 5.5 0 7.4 3.2 27.6 7.6 47.5 6.3 28.5 8.4 40.3 8.9 49.4.4 6.5 1.4 10.3 6.5 23.1 6.6 17.1 8.6 23.9 9.5 32.4.5 4.9.2 6.5-2.2 11.2-2.4 4.7-3.3 5.5-5.9 5.8-4.5.4-5.9-1.9-6-10 0-3.8-.5-7.3-1.1-7.9-2.3-2.3-3.3.3-3.3 9 0 7.8-.3 9.5-2.8 14.2-7.3 14-20.2 12.6-25.6-2.8-1.2-3.4-1.1-4.6 1.3-12.2 2.9-9.5 6.1-13.5 11.5-14.5 4.2-.8 4.5-1.9 1.1-4.2-2-1.3-3.8-1.5-8.3-1-13.9 1.6-17.7 7-19.7 28-.8 7.7-3.4 11.6-8 11.6-5.8 0-17.6-8.6-20.2-14.7-3-7.4-.8-17.5 4.9-21.6 4-3 11.9-3.4 16.2-.9l3.4 2-1-2.9c-1.6-4.6-7.2-8.9-11.6-8.9-7.2 0-17.1 8.6-20.4 17.6-1.1 3.2-1.5 3.4-6 3.4-3.8 0-5.4-.5-7.3-2.4-3.8-3.8-4-9.2-.9-30.4l2.7-19.1-3.6-16.8c-2-9.2-5.3-24.4-7.2-33.7-2-9.2-5.2-22.3-7.2-29-6.1-20.9-6.5-22.9-6.1-28.4.4-4.8 1-5.8 5.6-10.5l5.2-5.2-2-3.3c-1.1-1.7-2.1-3.2-2.4-3.2-.2 0-2.6 3.3-5.4 7.2-8.7 12.7-10.8 13.4-11.9 4-.3-3.3-1.1-5.2-1.9-5.2-1.1 0-4.8 6.7-7.4 13.5-1.6 4.1-3 1.9-3-4.5 0-3.2-.4-6.1-.9-6.4-1.3-.8-5.9 3.1-7.6 6.5-.9 1.6-2.9 6.6-4.6 11.1-4.1 11.5-8.9 17.9-19.4 26.5-4.9 4.1-13.8 12.4-19.6 18.5l-10.6 11.1-2.3-4.9c-4.5-9.2-4-23.6 2-55.4 3.5-18.8 4.6-40.2 2.3-42.2-2.1-1.7-4.4 0-5.9 4.6-3.5 10.1-7.9 60.5-7.9 90.1.1 14.5.5 20 2.3 28.5 1.1 5.8 2.6 15 3.2 20.5 1.5 14.3 4.8 31.3 7 35.4 2.6 5.2 6.9 8.8 11.4 9.6 6.3 1.1 15.5 6.3 21 11.8 6.5 6.6 9.6 13 9.6 19.9 0 8.2-.9 8.5-7 2.2-6.6-6.6-13.3-11.1-19.5-12.9-6.1-1.9-6.5-.3-.7 3.4 2.7 1.7 7.9 6.2 11.5 10 13.5 13.9 16.5 28.4 8 37.3l-2.6 2.8-3.3-4.8c-9.8-14.6-27.9-29.1-36.5-29.2-1.4 0-3.3.6-4.3 1.3-1.6 1.2-1.5 1.4 2.1 2.5 7.6 2.3 22.1 16.5 27.4 26.9 2 3.9 2.5 8.9 1 11.1-1.1 1.8-7.4 3.1-15 3.2-9.9 0-13.1-2-23.4-14.9-12-15.1-17.7-19.2-17.7-12.7 0 4.1 5 12.3 12 19.6 3.9 4 7 7.6 7 8 0 1.4-6.2 2-10.7 1-10-2.3-17.8-9-20.8-17.9-1-3.2-3-5.9-6.3-8.7-9.7-8.4-19.4-23.6-26.3-41.4-2.3-5.8-5.2-12.4-6.5-14.6-2.8-5-8.1-19.4-11.8-32.3-4.1-14.2-7.6-20.3-23.2-40.1-8.4-10.7-20.4-27.8-20.4-29.1 0-.4 1.9-1.1 4.3-1.7 10-2.6 12.7-11.7 7.2-24.8-2.5-5.9-.8-3.7 3.7 4.8 2.5 4.9 6.5 10.5 9.8 13.8 4.6 4.8 6.8 6.1 14 8.7 11.3 4.1 22.1 5.7 32.6 5 13.4-1 16.9-4 20.6-18 3.4-13 4.8-23.8 4.8-37.1.1-15.8 1.5-24 7-41.1 4.5-14 6.4-17.5 14.7-27.2 2.9-3.5 5.3-7 5.3-7.9 0-5-5.7-8.5-9.6-5.9-3 1.9-8.1 1.9-14.1-.1-6.6-2.2-8.3-3.7-5.2-4.4 2.1-.5 1-1.6-8.6-8.2-12.5-8.6-16-12.2-33.2-33.5-20.5-25.2-27.4-30.5-55.3-42.9-10.2-4.5-20.5-9.4-23-10.8-2.5-1.4-5.5-2.6-6.7-2.6-5 0-5.6-1.1-1.8-3.7 5.6-3.8 5-4.5-8-9.7-7.9-3.2-15.5-8.5-15.5-10.7 0-.4 1.6-.5 3.5-.2 2.9.5 3.6.2 4.5-1.9.8-1.6.8-3.2.1-5-1.6-4.2-7.9-10.6-11.2-11.3-2.2-.5-2.9-1.2-2.9-2.9 0-2.9-1.7-5.1-14.8-19.5-10.9-12-13.8-15.8-12.9-16.7.7-.8 13.1 4.8 26.6 11.9l11.4 6-.6-4.6c-.4-2.9-.3-4.7.3-4.7s9.6 5.2 20.2 11.5c10.5 6.3 19.8 11.5 20.6 11.5 1.1 0 1.3-.8.9-3.7l-.6-3.7 7.7 7.5c13.1 12.9 14.8 13.6 17.9 7.6l1.5-3.1 2.9 3.5 2.9 3.4-.6-3.3c-.4-1.7-.3-3.2.1-3.2s2.9 2.4 5.6 5.2c4.7 5.1 4.9 5.2 4.9 2.5 0-3.5 2-3.5 7.9-.2 7.4 4.2 17.1 5.5 17.1 2.3 0-.6-1.6-3.1-3.6-5.4-1.9-2.4-3.2-4.4-2.7-4.4 2.5.1 19.5 5 23.8 6.9 8.6 3.8 24.7 15.2 33.7 23.8 7.7 7.4 9 8.3 10.8 7.3 1.4-.7 2-2.1 2-4.3 0-3.4-3.1-11-4.9-12.1-.6-.4-1.1-1.1-1.1-1.6 0-2.2 18 5.4 27 11.4 5.2 3.5 12.8 8 16.8 10l7.2 3.6 2.5-2.5c1.4-1.3 2.8-3.8 3.1-5.5 1-4.6 2.4-4.7 2.4-.1 0 2.2.4 4.3 1 4.6 1.1.7 6-3.8 6-5.4 0-1.3 9.2-6.1 11.6-6.1 1.6 0 1.6.1.1 1.8-2.3 2.5-2.1 4.2.3 4.2 12.2 0 35.4-12.1 54.1-28.2 6.3-5.5 7.9-6.4 7.9-4.8 0 1.1.3 2 .8 2 .4 0 4.8-3.4 9.7-7.4 13.7-11.3 31.9-23.6 34.9-23.6.3 0 .3 1.3 0 3-.9 4.3 1.7 4 8-.9 10.4-8 15.5-13.8 19.2-21.9 3.7-8.2 5.5-10.2 8.9-10.2 1.3 0 3.5-1.6 5.5-4.1 3.1-3.9 10.3-8.2 12.5-7.5.6.1 1 3.4.9 7.2zM428.5 882.4c3.6 1.7 9.8 7.2 22.7 20.2 9.7 9.9 20.2 21 23.2 24.8 6 7.6 12 19 13 24.7.3 1.9 2.8 6.7 5.5 10.5 4.9 7 11.4 21 14.8 31.9 1.4 4.7 1.8 9.3 1.8 21.5 0 14.1-.3 16.3-2.8 25-7.9 26.4-14 31.7-44.5 38.7-8.9 2.1-15.9 3.9-15.7 4.1.2.2 6-.4 12.8-1.3 15-2 22.4-1.7 38.2 1.8 13.8 3.1 26.6 7.2 41.2 13.2 24.7 10.2 39.2 23 39.3 34.6 0 4.1-4.9 14.6-8.2 17.5-2.1 1.9-2.1 1.9-1.5-.4.8-3.2-1.9-12.8-5-18.1-3.3-5.6-9.9-12.8-12.4-13.6-1.1-.4-2.6-.1-3.4.5-1.8 1.5-1.4 2.2 6.1 12.7 7.1 9.8 7.7 11.4 6.3 16.6-1.6 5.8-5.8 9.7-10.6 9.7-4.7 0-5.7-.8-10.7-8.3-5.1-7.7-18.2-20.5-25.9-25.5-7-4.6-14-6.8-18-5.8-6.1 1.5-2.5 4.9 14.7 14.2 15 8.1 23.6 16.1 23.6 22.1 0 1.7-1.2 1.8-20.2 1.1-22.6-.8-21.8-.9-45.8 6.5-13.2 4.1-13.8 4.2-27.5 4.1-10.1 0-15.5-.5-19.5-1.8-3-.9-13.2-2.5-22.7-3.6-20.2-2.3-26.4-4.2-33.7-10.4-5.2-4.5-5.4-4.6-12.5-4.6H344l.6-5.8c.9-7.5 7.2-18.2 12.6-21.2 4.2-2.4 4.5-3.2 2.3-8.3-3.3-7.9-.4-12.8 4.2-7.1l2.3 2.9v-4.4c0-2.4-.8-8.1-1.7-12.7-1.7-8.2-1.7-8.4.3-12.6 3.1-6.4 16.7-24.1 20.8-27.3l3.6-2.7 8.1 1.2 8 1.3 2.8-2.7c3.6-3.5 10.4-3.5 22.6 0 1.6.5 1.8.4.8-.7-.7-.7-1.3-2.1-1.3-3.1 0-2.6 3.5-2.3 13.6 1.2 4.8 1.6 9.1 2.7 9.6 2.4.5-.4.8-8.6.7-20.1-.2-16.9 0-19.7 1.4-20.4 1-.6 2.1-.4 3.1.7 1.5 1.4 1.7 1.3 2.7-1.3 1.8-4.3 2.3-18.6.9-25.6-2.3-12.2-9.3-26.4-17.3-35.4-3.2-3.6-3.4-4.3-4-12.8-.9-14.2-7.1-26.6-23-45.8l-3.9-4.7h4.9c3 0 6.7.9 9.8 2.4z"/><path d="M588.1 473.8c-5.9 6.1-12.6 18-14.5 25.7-2.1 8.3-3.6 21.4-3.6 31.1 0 11.5 2.7 19.7 8.6 26.3 7.5 8.4 9.1 6.6 5.1-5.5-3.8-11-5.2-20-5.2-32.9 0-15.3 2.3-23.2 9.5-33s9.3-13.4 8.6-15c-1-2.7-3.9-1.6-8.5 3.3zM693 501.9c-17.8 3.9-33.4 11.7-42.9 21.5-4.2 4.2-4.3 4.7-3.9 9.3.8 7.9 4.6 15.1 12.5 23.7 4 4.3 7.3 8.3 7.3 8.8 0 1.9 7.9 4 17.2 4.5 7.9.5 10.2.3 12.1-1 1.4-.9 2.7-1.3 3.1-1 .3.4.6 3.7.6 7.4 0 7.8-.4 8.3-13.3 16.3-11.1 6.9-14.5 7.9-27.7 8-12.5.1-23.2-1.8-33-5.9-6.9-2.9-14.5-4.1-15.5-2.5-2 3.3 8.6 9 23 12.5 27 6.5 47 3.3 67.9-10.8l9-6 11 2.2c6.1 1.2 13.9 2.4 17.2 2.8 11.7 1.1 34.2-3.8 42.8-9.4 5.3-3.4 13.2-10.9 16.8-15.7 5.1-7 3.1-8.6-4.3-3.6-2.4 1.6-5.2 3-6.1 3-.9 0-2.6 1.6-3.8 3.5-1.7 2.7-4.3 4.6-11.3 8-5.1 2.4-11.4 4.9-14 5.6-9.7 2.4-23.1 0-39.3-7-4.6-2-5.3-2.7-5.8-5.9-1.3-7.9-1.7-7.4 6.7-10.2 6.2-2.1 8.9-3.7 12.8-7.6 7.2-7.1 8.2-10.5 7.8-26.6-.4-11.9-.7-13.7-2.8-17.1-3.9-6.3-8.5-8-23.1-8.4-9.5-.2-14.5.2-21 1.6zm33 19.8c0 1-1.4 5.6-3.1 10.3-1.6 4.7-3.7 10.6-4.5 13.2-.8 2.6-2.3 5.2-3.4 5.8-1.7.9-2 .6-2.6-2.5-1.4-7.6 1.9-21 6.4-25.8 2.9-3.1 7.2-3.7 7.2-1zm-50.8 18.4c2.6 1.7 6.1 5.2 7.8 8 1.8 2.7 4.5 5.9 6.2 7 2.3 1.7 2.6 2.4 1.7 3.5-1.6 1.9-5.7-.4-11.7-6.5-2.6-2.6-6.5-6-8.7-7.6-5.7-4-9.5-7.7-9-8.5.9-1.4 8.9 1.1 13.7 4.1z"/></svg><svg version="1.0" viewBox="0 0 1279 1280" id="1801287" xmlns="http://www.w3.org/2000/svg"><path d="M886 .6c-1.4.2-5.9.9-10 1.5-23.9 3.3-51.7 14.7-77.6 31.7-25.3 16.7-44.3 32.5-81.9 68.2-28.9 27.4-40.7 37.8-54.2 47.9-51.9 38.6-125.7 65.8-244.3 90.1l-15.6 3.2-8.9-5.8c-55.3-35.7-113.1-62-176.7-80.4-19.5-5.7-47.7-12.2-62.8-14.6-12.5-1.9-37.8-2.2-47-.5-39.6 7.3-61 34.4-66 83.6-1.7 15.8-.8 48.9 2 75.5 9.4 91.7 29.1 173.2 62.5 259.5 13 33.6 15.5 42.8 15.5 56.8-.1 13.3-4.7 23.8-16.7 37.8-2.6 3.1-11.7 12.9-20 21.8-8.4 8.9-19.3 21.6-24.2 28.1-32.7 43.4-51.5 95.7-58.3 162-1.7 16.4-1.7 71.3 0 89.5 4.1 44.6 10.2 80.7 22.8 136 7.5 32.5 8.2 36.3 10 49 1.8 13 4.6 19.7 10.3 25.1 3.3 3.2 13.9 8.9 14.8 8 .2-.1-1.5-5.6-3.7-12.2-33.1-98.1-46.7-219.3-34.5-306.9 6.3-44.9 18-79.4 36.4-106.6 8.4-12.5 15.5-20.6 24.9-28.3 41.7-34 95.8-35.2 159.2-3.5 73.1 36.6 122.9 92.7 136.5 153.9 2.6 11.8 3.1 37.5 1 50.1-8.1 48.4-40.4 84.7-86.3 97.1-12.1 3.3-37.3 3.7-52 .9-45.8-8.8-85.8-40.9-106.8-85.7-2.5-5.5-6.2-13.1-8-17.1-6.4-13.5-17-19.4-22.4-12.5-5 6.2-.4 27.2 10.6 48.2 8.3 16 17.4 28 32.4 43.1 22.8 22.9 45.7 35.9 75.5 42.7 13.8 3.2 25.9 4.2 64.5 5.2 37.4 1 45.9 1.9 60.3 6.5 11.5 3.7 21.8 8.7 32.6 15.9 13.3 8.9 22.2 16.5 47.6 40.6 25.1 23.8 34.3 31.7 46.9 40.2 11.8 7.9 21.9 12.9 34.7 17.1 9.4 3.2 18.8 5.2 60.9 13.2 40.4 7.8 62.6 19.6 77.5 41.4l4.6 6.8-2.5 8.9c-6.7 24.1-9.7 38.3-8.7 40.3 1.2 2.2 10.7 6.1 15.1 6.1 5.8 0 6.6-1.7 13-27.3 8.6-35 11.8-43.7 20.6-56.8 11-16.4 21-28.7 34.8-42.5 39.4-39.2 88.2-64.6 136.3-70.9 61.1-8 117.5 20.1 148.2 74 13.2 23.2 19.6 48.2 18.9 74.3l-.3 13.2 3 1.2c9.6 4 22.1-2.7 26.1-13.9 1.8-5.2 1.7-20.9-.2-31.8-4.7-27.2-22.3-63.8-43.1-89.5-6.1-7.5-22.1-23.5-32-32l-5.3-4.5 23.6-41.5c70.7-124.5 76.9-134.7 86.4-143.3 9.4-8.5 21.9-10.9 33.7-6.5 7.8 2.8 18.5 13.6 23.1 22.9 9.6 19.7 8.2 36.5-6.3 76.7-11.6 32.5-14.1 46-13.2 72 .8 25.7 6.1 47.1 17.7 71.1 14.9 30.7 35.9 55.2 62.8 73.2 12.3 8.3 23.5 13.7 37.9 18.5 18 6.1 27.2 4.8 33.8-4.5l3-4.3-.2-23.6c-.4-65.9-16.8-134.8-47.2-197.7-10.3-21.3-19-36.5-32.6-57-13.8-20.7-24.3-34.2-45.6-58.5-19.5-22.3-27.5-33.3-34-46.5-6.6-13.6-8.9-23.7-8.9-39.5 0-16 1.6-25.3 9.4-56.3 10.4-40.7 14.1-63.3 15.5-93.9 2.2-50.1-5-96-23.9-151-3.3-9.7-12.8-34.6-21.1-55.5-36.4-91.3-41.1-111.2-45.4-193.3-2.4-47.2-4.3-68.4-7.6-88-7.9-47.1-25.1-84.2-50.8-110.1-18.5-18.5-37.7-29.2-62.3-34.5-7-1.5-32.6-2.7-37.8-1.8zm31 38.9c41.8 15.4 76.4 68.4 90.9 139.1 10.8 52.8 8.5 103.8-6.9 148.8-3.3 9.9-3.8 15.6-1.5 20 .8 1.5 5.7 8.5 10.9 15.5 56.4 76.2 74.2 120.3 85 211.1 6.1 51.1 5.4 96-2.5 153-4.5 32.5-13.5 70.4-19.5 82.1-.7 1.5-5 13.4-9.5 26.5-4.4 13.1-10.3 28.8-13 34.9-19.4 43.3-50 79.7-94.2 111.8-23.4 17.1-44.7 29.1-88.3 49.8-104.9 49.8-148 64.9-199.8 70-17.5 1.7-56.4.6-73.6-2-37-5.8-79.2-18.1-124.5-36.3-45.8-18.4-92.9-41.9-97.1-48.3-2.4-3.7-1.1-6.7 5.5-12.4 3.3-2.9 8.3-8.4 11.2-12.4 2.9-4 7.3-9.9 9.7-13.2 5.4-7.2 10.5-17.8 12.7-26 2.3-8.4 3-29.1 1.6-41.1-1.8-14.1-5.4-30.5-11.6-52.6-12.2-43.9-21.8-64.8-38.6-84.8-3-3.6-7.7-9.4-10.4-13-2.8-3.6-7.8-9.6-11.2-13.3-9.6-10.5-9.6-12.6.1-23.8 3.5-4.1 10-11.6 14.5-16.8 21.9-25.4 38.9-51.4 67.5-103.4 27.7-50.2 37.6-87 44.5-165.2 4-44.4 3.7-63.1-1.3-82.9-4.4-17.2-16.3-43.8-24.2-54.2-4.9-6.4-6.4-9.8-6.4-14.9 0-4.1.5-5.1 4.5-9.4 9.5-10.2 27.6-16.8 81.5-29.9 38-9.3 89.8-17.7 117.5-19.1 10.2-.5 15-1.2 17.7-2.5 6.8-3.3 18.8-17.2 32.3-37.4 7.1-10.6 16.5-23.7 20.9-29 10.4-12.5 38.1-40.7 50.8-52 36-31.6 88.1-62.1 117.5-68.6 10.9-2.5 27.9-1.6 37.3 1.9zm-761.8 208c12.8 2.2 26 6.9 39.8 14.2 43.9 23.1 63.4 45.4 69 79.3 3.2 18.8-3 38.5-18.4 59-12.3 16.4-42.2 42.6-56.6 49.7-17.3 8.5-30.3 1-47.2-27.3-14.6-24.5-25.5-48.4-32.2-70.7-4.4-14.5-12.2-49.2-13.6-60.1-2.9-23.3 8-40.6 28-44.5 7.2-1.4 22-1.2 31.2.4z"/><path d="M885.1 97.1c-7.1 1.2-21.6 6.1-28.8 9.8-25.9 13.1-53.5 39.1-76.6 72.4-13.7 19.6-18.7 30.8-18.7 41.9 0 13.2 6.9 20.6 27.5 29.3 5 2.1 25.2 11.9 44.9 21.8 19.8 9.8 38.7 19 42 20.2 17.7 6.6 34.2 7.2 46.1 1.7 22.1-10.4 33.6-41.4 32.2-87.2-.6-19-2.1-29.4-8.6-58.5-4.4-19.6-5.5-23.5-9.6-31.4-8.5-16.8-26.5-23.9-50.4-20zm6.4 34.2c6.4 6.7 10.1 18.2 17.9 54.7 4.7 22.3 6.7 39.3 6.9 58.6.2 14.6 0 16.4-1.7 18.3-3.7 4.1-11.4 2.4-33.5-7-21-9-38.2-19.3-57.6-34.4-16.3-12.7-19.4-18.8-14.2-28.4 3.7-7 25.6-35 35-44.8 13.8-14.3 26-21.2 37.6-21.3 5.1 0 5.7.3 9.6 4.3zm-1.9 441.2c-3.3 1.3-11 5.8-17 9.8-6.1 4.1-15 10-19.7 13.1-9.8 6.3-18.5 15.2-22 22.3-3.5 7.2-3.8 17.4-.7 23.2 3.6 6.8 8.7 10.3 15.3 10.9 5.3.4 5.7.3 8.9-3.2 2.3-2.4 4.8-7.2 7.6-14.3 6.9-18 11.9-24 26-30.6 11.3-5.4 17.7-4.2 29.4 5.5 3.2 2.7 7.3 5.6 9 6.6 4.2 2.2 14.1 2.2 18.4-.1 6.9-3.7 9.2-12.9 5.3-20.6-3-5.8-12.3-13.7-21.5-18.1-15.6-7.5-28.2-9-39-4.5zm110.9 96c-13.3 2.3-45.5 12.9-56.7 18.6-4.7 2.4-7.8 6.4-7.8 10.1 0 3.9 3.2 10 7 13.2 5.1 4.2 9.9 3.6 23.3-2.9 9.8-4.8 12.6-5.7 22.2-7.1 8.6-1.2 12.6-2.4 18.4-5.2 8.5-4.3 9.2-5.5 9.5-15.9.1-6-.2-7.5-1.9-9.1-2.8-2.8-6-3.1-14-1.7zM496 693.6c-1.4.2-5.2.9-8.5 1.5-14.3 2.5-28.9 13.1-38.9 28.2-14.6 22.2-15.7 30.9-4.6 38.4 4.4 3.1 10.6 3 15.1 0 2.1-1.4 4.9-5 7.4-9.7 5.2-9.7 18.6-23.6 26.6-27.4 11.5-5.5 21.6-5.3 37.9.9 10.9 4.1 16 4.4 22.1 1.2 8.4-4.5 9-10.9 1.8-19.1-6.1-7-11.3-9.1-28.9-12-9.3-1.6-26.1-2.7-30-2zm508.5 35.1c-33.2 9-33.6 9.2-37.1 12.8-3.4 3.7-4.9 8.7-3.4 11.5.5 1 2.4 2.3 4.1 2.9 5.8 2 11.4 1.3 22.6-3 9.9-3.8 11.7-4.1 22.3-4.5 14.6-.5 24.4-2.1 26.3-4.2 4-4.5 3.2-12.5-1.8-17.7-2.9-3.1-3.8-3.5-8.1-3.4-2.7.1-13.9 2.6-24.9 5.6zm-278.2 3.8c-26.1 4.7-49.3 19.5-62.3 39.6-6.3 9.8-7.7 18.6-4.1 26.4 4.2 9 13.2 14.2 31.8 18.1 26.7 5.6 31.6 7.4 33.2 11.7 1.9 4.9 6.2 38.9 6.2 49 0 9.6-.4 11.7-3.7 21.7-5.8 17.6-12.3 25.8-24.6 31.5-19.3 8.8-43.3 2.8-63.6-15.9-5.1-4.6-10.8-9-12.7-9.6-5.3-1.8-9.8.8-13.1 7.6-2.3 4.8-2.6 6.3-2.2 12.4.8 11.3 7.2 19.6 20.3 26.2 15.8 8.1 32.7 11.3 54.4 10.5 28.6-1 43.1-8.3 52.3-26 7.7-14.8 15.9-23.6 24.2-25.8 3.6-1 4.9-.9 10.6 1.2 5.9 2.2 8.4 2.4 26 2.7 10.7.2 25.3-.1 32.4-.7 15.6-1.3 20.4-3.2 29.5-11.7 3.5-3.2 10.7-9.5 15.9-13.9 12.7-10.6 13.8-12.8 16.4-33.1 1.2-9.2 1.7-17.5 1.3-20.1-.8-5.5-5.1-10.6-10.3-12.1-5.3-1.6-15.5-1.5-19.5.2-6.2 2.6-7 4.5-7.8 17.9-.9 13.6-3.7 26.2-7 30.9-3 4.2-10.1 8.5-18.4 11.1-8.9 2.8-26.6 3-36.5.4-15.1-4-27.1-12.8-30.4-22.2-.8-2.6-2-9.3-2.7-14.9-2.1-18.9 1-31.7 12.9-53.4 11.6-20.9 13.5-25.5 14-34.1.3-7.1.2-7.9-2.6-12.3-5.8-9-22.6-14.8-42.2-14.7-5.8 0-13.7.7-17.7 1.4zm256.5 73.6c-4.4 1.3-8.8 6-8.8 9.5 0 4 2.5 8.8 6.1 11.8 3.2 2.7 3.6 2.8 9.9 2 14.2-1.8 18-1.2 28.2 3.9s14 5.7 19.3 3.1c4.3-2 13.5-11.7 13.5-14.2 0-5.6-9.9-11.1-25.7-14.3-11.5-2.3-36.9-3.4-42.5-1.8zm-497.3 13c-17.1 5.9-38.4 18.8-47.8 28.9-5.6 6-8.6 12.3-7.4 15.4 1.1 2.9 5.7 3.9 11.4 2.8 6.8-1.4 50.5-19.6 56.6-23.6 6.8-4.5 7.6-16.8 1.5-23.4-2.7-2.8-6.4-2.8-14.3-.1zm-2.5 63.6c-1.4.2-6 1.5-10.2 2.9-19.5 6.4-34 22.5-30.8 34.3 1.4 5.2 6.2 10.8 10.1 11.6 4.3 1 12.5-3.3 18.5-9.6 2.7-2.8 5.8-5.6 6.9-6.2 1.2-.6 7.1-1.1 14-1.2 10.4 0 12.6-.4 16.2-2.3 7-3.7 8.8-9.3 5.4-16.7-4.6-10.2-16.2-15.1-30.1-12.8zm12.5 64.2c-4.6 2.1-10.6 7.7-22.7 21.5-11.7 13.1-13.2 19.1-6.6 25.6 8.9 8.9 26.1 4.1 35.4-10 3.5-5.2 6.1-6.7 14.4-8.5 13.9-2.9 18-6.2 18-14.6 0-5.7-1.8-8-8.5-10.9-4.7-2-18.8-5-23.4-5-1.4 0-4.4.9-6.6 1.9zM300.3 832.5c-3.4 1.5-3.7 2.3-3.3 9.5.5 9.4 7.1 21.2 18 32 8.6 8.7 15.3 12.5 20.1 11.5 4.2-.9 9.5-5.9 10.9-10 1.5-4.6.3-8.3-5.9-17.7-9.5-14.5-18.2-22-29-25.2-6.5-1.9-6.7-1.9-10.8-.1zm-66.2 28.1c-1.3.9-2.9 3.2-3.7 5-2.5 6-1.9 7.8 4.7 13.6 7 6 9.9 10.6 13.3 20.5 4.5 13.1 8.1 15.9 18.8 14.7 8.3-.9 10.2-2.9 9.5-9.8-1-9.4-5.3-18.9-11.8-26-9.8-10.7-22.2-19.6-27.1-19.6-.8 0-2.4.7-3.7 1.6zm-65.7 31.9c-2.6 4-1.4 10.4 3.4 17.7 5.6 8.7 8.7 15.7 11.6 26.7 1.4 5.2 3.3 10.2 4.1 11 1 1 3.3 1.6 6.1 1.6 4 0 5-.5 7.9-3.6 8.3-9.1 3.8-29-10-43.8-10.8-11.5-19.5-15.1-23.1-9.6z"/></svg><svg version="1.0" viewBox="0 0 1280 1232" id="306277" xmlns="http://www.w3.org/2000/svg"><path d="M842.5 3.4c-16.3 4.2-25.4 7.5-37.8 13.7-48.7 24.2-88.4 72.7-110.9 135.4-9.7 27.2-14.7 49.1-18.4 81.5-2.8 25.2-3.1 46.4-.9 65.4 8.6 73.3 43.2 131 94 156.3 31 15.6 60.6 17.8 88.9 6.6 65.4-25.7 114.9-83.9 139-163.5 11.5-38.1 16-83 12.1-121.8-2.9-29.5-4.3-38.6-7.6-51-9.8-36.5-31-71.6-56.3-92.8C924.3 16.1 905.4 7 881 2.5c-16.6-3.1-23.7-2.9-38.5.9zM381.3 7.5c-39.8 7.2-77.9 39.7-99.8 85-9.4 19.6-14.3 37-18.1 64.5-2.5 17.7-2.5 59.3-.1 78.5 11.4 90 53 164.4 115.4 206.1 12.9 8.6 34.1 19.1 48.4 23.9 10.4 3.5 12.5 3.8 24.9 4.3 9.6.3 16.1 0 22.5-1.2 29-5 55.4-20.5 75.3-44.1 23.9-28.4 39.4-66.4 45.4-111.5 1.6-12.2 1.6-53.2-.1-67-9.6-79.8-38.5-143.7-85.2-188.5C487.6 36.1 465 22.3 437 12.9c-20-6.7-38.7-8.5-55.7-5.4zm758.6 365c-40.5 6.6-76.4 25.3-108.3 56.4-21 20.6-37.6 43.2-51.7 70.5-17.3 33.6-25.2 59-32.1 103.6-3.1 20.3-3.1 50.2 0 67.3 6.6 35.8 20.5 65.1 41.4 87.2 18.5 19.6 40.5 31.4 65.3 35.1 16.7 2.5 40.6-.5 63.3-8.1 80.8-27 146.8-118.5 158.7-220 .8-7.2 1.5-15 1.5-17.4 0-2.5.5-8.2 1.2-12.8 1-7.1.9-10.5-.6-22.6-3.6-29.3-8.4-46.4-19.1-68.2-17.6-35.8-47.1-61.2-80.9-69.6-10.5-2.6-27.5-3.3-38.7-1.4zM110.5 397.7c-1.6.2-7.3 1.3-12.5 2.4-39.8 8.9-72.5 37.3-85 74.1-4.1 12.3-7.7 27.8-9.5 41.3-.8 6.6-2 15.4-2.5 19.5-1.5 10.9-1.2 18.7 1 38.2 2.5 21.5 4.1 30.7 8.6 47.8 9.6 36.9 29.7 76.6 54 107 8.8 10.9 27.5 29.6 38.4 38.4 26.9 21.5 59 37.3 91.2 44.7 13.9 3.2 32.8 3 46.3-.5 37.2-9.7 69.2-40.7 83.3-80.7 3.7-10.4 7.6-29.3 9.2-44.6 1.6-14.5.8-51.1-1.4-65.3-13.9-88.1-67.1-164.9-142.2-205.4-18.7-10-27.4-13.2-43.8-16.1-8-1.3-26.9-1.8-35.1-.8zM627 642.1c-78.1 8.5-149.7 41.7-207.8 96.1-15.6 14.6-24.5 24.8-41.4 47.3-42.9 56.9-77.4 117.1-101.1 176-11.3 28.3-18.8 53-30.3 100-4 16.4-4.7 20.8-5.2 32.6-1.6 45.4 21.3 89.6 59.6 114.6 22.9 15 43.1 20.1 76.4 19 39.4-1.2 65.3-7.9 144.8-37.5 60-22.3 87.9-29.8 123.5-33.2 32.2-3 36.8-3.2 52.2-2.1 36.6 2.8 67.2 11.1 121.3 33.1 89.1 36.1 87.4 35.5 104 38.9 21.8 4.5 40.1 6 49.7 4.2 2.6-.6 9.5-1.7 15.3-2.7 31.8-5 60-21 77.4-43.8 14.8-19.3 20.6-39.8 20.6-71.6-.1-37.7-11.4-75.1-40.9-135.5-12.1-24.7-18.5-35.4-49.8-82.9C925 787.9 867.1 725.8 797 681.7c-37.5-23.5-70.5-34.8-116.5-39.7-10.6-1.2-42.7-1.1-53.5.1z"/></svg><svg viewBox="0 0 1000 1000" id="Sitting-Dog-Silhouette" xmlns="http://www.w3.org/2000/svg"><path d="M21.85 807.354c1.25-6.66 9.02-15.54 27.887-19.425 18.868-3.884 48.841-2.774 76.868-1.942 28.027.833 54.112 1.388 72.15-2.497 18.036-3.886 28.027-12.21 37.46-19.703 9.435-7.492 18.316-14.152 22.756-19.425 4.439-5.272 4.439-9.157 8.878-25.803s13.321-46.069 27.196-73.263c13.874-27.194 32.745-52.17 66.32-90.462 33.577-38.294 81.863-89.91 115.995-122.377 34.132-32.467 54.112-45.787 75.478-67.43 21.367-21.645 44.123-51.616 66.044-84.36 21.922-32.744 43.013-68.265 55.5-86.857 12.488-18.591 16.373-20.256 18.315-23.863 1.941-3.607 1.941-9.159 3.884-18.176 1.942-9.018 5.828-21.507 14.985-30.803 9.157-9.295 23.588-15.4 31.219-19.286 7.63-3.885 8.463-5.55 15.118-8.6 6.656-3.051 19.153-7.494 31.917-8.465 12.764-.972 25.807 1.526 34.825 4.717 9.019 3.191 14.014 7.076 19.425 9.574 5.412 2.497 11.24 3.607 16.372 6.937 5.133 3.33 9.574 8.88 13.042 13.597 3.469 4.718 5.966 8.603 12.21 10.962 6.246 2.358 16.235 3.19 25.947 3.19s19.147-.832 28.304-.693 18.038 1.249 24.281 2.22c6.244.971 9.851 1.804 11.932 4.162 2.08 2.357 2.636 6.243 1.803 11.794-.832 5.55-3.052 12.764-5.133 19.424s-4.023 12.764-7.909 18.454c-3.885 5.689-9.711 10.96-18.037 15.54-8.326 4.579-19.146 8.463-22.892 11.1-3.747 2.636-.417 4.024 4.023 5.134 4.44 1.11 9.99 1.942 15.678 3.746 5.688 1.803 11.516 4.579 16.788 9.018 5.272 4.44 9.99 10.545 12.071 15.262 2.082 4.717 1.527 8.047-.694 9.157-2.22 1.11-6.104.001-10.267-2.08-4.163-2.082-8.602-5.134-10.545-4.857-1.942.277-1.387 3.885-2.775 8.047-1.387 4.163-4.716 8.88-9.434 12.904-4.718 4.024-10.821 7.353-23.033 8.325-12.212.971-30.523-.416-43.843-1.803-13.32-1.388-21.645-2.775-26.085-2.637-4.44.138-4.995 1.803-6.245 7.495-1.25 5.693-3.19 15.398-7.63 25.666-4.44 10.268-11.377 21.089-15.956 29.136-4.579 8.048-6.798 13.32-7.492 19.148-.694 5.829.138 12.21 0 19.286-.14 7.076-1.25 14.845-.555 27.612.693 12.766 3.19 30.523 1.942 50.642-1.249 20.119-6.244 42.595-13.042 66.182-6.8 23.588-15.401 48.284-21.922 62.853-6.521 14.568-10.96 19.008-13.042 22.616-2.082 3.608-1.805 6.382-2.221 18.318-.417 11.936-1.526 33.018-1.249 48.836.278 15.818 1.943 26.362 3.469 41.347 1.526 14.986 2.914 34.409 5.411 48.84 2.498 14.43 6.105 23.864 10.129 32.05 4.024 8.187 8.463 15.124 12.765 19.009 4.302 3.885 8.464 4.718 14.152 5.827 5.688 1.11 12.904 2.498 19.008 5.828 6.105 3.33 11.1 8.602 14.153 13.32 3.052 4.716 4.162 8.879 3.468 10.544-.693 1.665-3.19.833-4.855 1.249-1.665.416-2.498 2.08-8.885 3.469-6.386 1.388-18.31 2.497-29.687 2.636-11.378.139-22.2-.694-28.86-3.608s-9.158-7.908-12.904-14.568c-3.746-6.66-8.741-14.985-13.042-22.894-4.301-7.908-7.909-15.4-12.348-20.257-4.44-4.855-9.713-7.075-12.21-11.655-2.498-4.58-2.22-11.517-2.498-19.98-.277-8.462-1.11-18.453-3.885-32.05-2.775-13.596-7.493-30.803-10.129-40.376-2.636-9.574-3.191-11.516-4.577-11.517-1.387 0-3.608 1.943-7.91 5.69-4.303 3.748-10.682 9.295-13.458 14.29-2.775 4.996-1.943 9.435-1.527 23.45.417 14.017.417 37.6.278 54.25-.139 16.65-.416 26.361.277 33.576.694 7.216 2.359 11.933 5.273 19.703 2.914 7.771 7.076 18.592 10.128 24.558 3.053 5.967 4.996 7.077 10.128 10.823 5.133 3.745 13.46 10.129 18.593 18.037 5.134 7.908 7.076 17.343 6.66 22.615-.415 5.273-3.19 6.383-10.269 7.077-7.079.694-18.45.971-30.522.416-12.072-.555-24.836-1.942-32.745-4.995-7.91-3.053-10.962-7.77-12.765-14.43-1.804-6.66-2.359-15.263-4.024-25.39-1.665-10.128-4.44-21.784-7.492-30.248-3.053-8.463-6.383-13.735-8.741-20.673-2.36-6.937-3.747-15.54-4.024-24.142-.277-8.602.555-17.206.416-28.166-.138-10.96-1.249-24.281-3.745-30.525-2.497-6.243-6.382-5.41-15.68-1.386-9.3 4.025-24.002 11.237-39.68 19.424-15.68 8.186-32.328 17.343-42.318 23.309-9.99 5.966-13.32 8.74-12.903 10.962.416 2.22 4.577 3.885 13.179 4.856 8.602.971 21.646 1.249 35.381 2.498 13.736 1.248 28.166 3.468 37.6 6.937 9.435 3.468 13.875 8.186 16.65 14.152 2.775 5.965 3.885 13.18 1.943 17.343-1.942 4.163-6.936 5.273-15.68 5.828-8.742.555-21.226.555-33.992-.277-12.765-.833-25.806-2.498-40.237-4.163-14.43-1.665-26.157-3.539-39.29-4.805-13.219-1.276-26.766-5.64-39.742-2.812-6.327 1.378-17.391 2.841-17.052 9.308.501 9.54 18.16 6.29 26.458 11.024 5.86 3.343 11.075 6.71 16.208 12.12 5.133 5.412 8.741 11.517 9.296 16.234.556 4.717-1.941 8.047-5.827 10.545-3.886 2.498-9.156 4.162-20.397 3.885-11.241-.278-28.442-2.497-44.398-5.41-15.957-2.915-30.663-6.522-45.232-9.574-14.569-3.053-28.998-5.55-39.265-7.354-10.268-1.804-16.372-2.914-19.148-6.8-2.775-3.886-4.324-10.892-1.11-15.4 19.002-26.656-4.995-44.26-7.353-43.29-2.36.972-5.688 3.746-14.015 8.604-8.328 4.857-21.643 11.792-35.518 16.094-13.876 4.301-28.304 5.966-49.95 5.55-21.646-.416-50.503-2.914-72.426-4.44-21.922-1.526-36.906-2.081-50.088-3.052-13.181-.972-24.558-2.359-32.883-5.273-8.326-2.914-13.598-7.353-12.349-14.014z" fill="#1a1a1a"/></svg><svg viewBox="0 0 24 24" fill="none" id="cloud-moon" xmlns="http://www.w3.org/2000/svg"><path d="M21 15.502A6.502 6.502 0 0 1 21 3.5a6.502 6.502 0 0 0-8.5 3.496M6.9 21C4.746 21 3 19.289 3 17.178c0-1.75 1.3-3.366 3.25-3.678.612-1.438 2.06-2.5 3.748-2.5 2.163 0 3.93 1.659 4.052 3.75 1.148.496 1.95 1.715 1.95 3.034C16 19.56 14.545 21 12.75 21H6.9z" stroke="#000" stroke-width="2" stroke-linecap="round" stroke-linejoin="round"/></svg><svg viewBox="0 65.326 612 502.174" id="kiwi" xmlns="http://www.w3.org/2000/svg"><ellipse fill="#C6C6C6" cx="283.5" cy="487.5" rx="259" ry="80"/><path d="M210.333 65.331c-105.966.774-222.682 85.306-209.277 211.118 4.303 40.393 18.533 63.704 52.171 79.03 36.307 16.544 57.022 54.556 50.406 112.954-9.935 4.88-17.405 11.031-19.132 20.015 7.531-.17 14.943-.312 22.59 4.341 20.333 12.375 31.296 27.363 42.979 51.72 1.714 3.572 8.192 2.849 8.312-3.078.17-8.467-1.856-17.454-5.226-26.933-2.955-8.313 3.059-7.985 6.917-6.106 6.399 3.115 16.334 9.43 30.39 13.098 5.392 1.407 5.995-3.877 5.224-6.991-1.864-7.522-11.009-10.862-24.519-19.229-4.82-2.984-.927-9.736 5.168-8.351l20.234 2.415c3.359.763 4.555-6.114.882-7.875-14.198-6.804-28.897-10.098-53.864-7.799-11.617-29.265-29.811-61.617-15.674-81.681 12.639-17.938 31.216-20.74 39.147 43.489-5.002 3.107-11.215 5.031-11.332 13.024 7.201-2.845 11.207-1.399 14.791 0 17.912 6.998 35.462 21.826 52.982 37.309 3.739 3.303 8.413-1.718 6.991-6.034-2.138-6.494-8.053-10.659-14.791-20.016-3.239-4.495 5.03-7.045 10.886-6.876 13.849.396 22.886 8.268 35.177 11.218 4.483 1.076 9.741-1.964 6.917-6.917-3.472-6.085-13.015-9.124-19.18-13.413-4.357-3.029-3.025-7.132 2.697-6.602 3.905.361 8.478 2.271 13.908 1.767 9.946-.925 7.717-7.169-.883-9.566-19.036-5.304-39.891-6.311-61.665-5.225-43.837-8.358-31.554-84.887 0-90.363 29.571-5.132 62.966-13.339 99.928-32.156 32.668-5.429 64.835-12.446 92.939-33.85 48.106-14.469 111.903 16.113 204.241 149.695 3.926 5.681 15.819 9.94 9.524-6.351-15.893-41.125-68.176-93.328-92.13-132.085-24.581-39.774-14.34-61.243-39.957-91.247-21.326-24.978-47.502-25.803-77.339-17.365-23.461 6.634-39.234-7.117-52.98-31.273-29.365-51.617-81.947-74.215-137.452-73.811zM445.731 203.01c6.12 0 11.112 4.919 11.112 11.038 0 6.119-4.994 11.111-11.112 11.111s-11.038-4.994-11.038-11.111a11.01 11.01 0 0 1 11.038-11.038z"/></svg></svg>