<svg version="1.0" xmlns="http://www.w3.org/2000/svg" width="1706.667" height="1642.667" viewBox="0 0 1280 1232"><path d="M842.5 3.4c-16.3 4.2-25.4 7.5-37.8 13.7-48.7 24.2-88.4 72.7-110.9 135.4-9.7 27.2-14.7 49.1-18.4 81.5-2.8 25.2-3.1 46.4-.9 65.4 8.6 73.3 43.2 131 94 156.3 31 15.6 60.6 17.8 88.9 6.6 65.4-25.7 114.9-83.9 139-163.5 11.5-38.1 16-83 12.1-121.8-2.9-29.5-4.3-38.6-7.6-51-9.8-36.5-31-71.6-56.3-92.8C924.3 16.1 905.4 7 881 2.5c-16.6-3.1-23.7-2.9-38.5.9zM381.3 7.5c-39.8 7.2-77.9 39.7-99.8 85-9.4 19.6-14.3 37-18.1 64.5-2.5 17.7-2.5 59.3-.1 78.5 11.4 90 53 164.4 115.4 206.1 12.9 8.6 34.1 19.1 48.4 23.9 10.4 3.5 12.5 3.8 24.9 4.3 9.6.3 16.1 0 22.5-1.2 29-5 55.4-20.5 75.3-44.1 23.9-28.4 39.4-66.4 45.4-111.5 1.6-12.2 1.6-53.2-.1-67-9.6-79.8-38.5-143.7-85.2-188.5C487.6 36.1 465 22.3 437 12.9c-20-6.7-38.7-8.5-55.7-5.4zm758.6 365c-40.5 6.6-76.4 25.3-108.3 56.4-21 20.6-37.6 43.2-51.7 70.5-17.3 33.6-25.2 59-32.1 103.6-3.1 20.3-3.1 50.2 0 67.3 6.6 35.8 20.5 65.1 41.4 87.2 18.5 19.6 40.5 31.4 65.3 35.1 16.7 2.5 40.6-.5 63.3-8.1 80.8-27 146.8-118.5 158.7-220 .8-7.2 1.5-15 1.5-17.4 0-2.5.5-8.2 1.2-12.8 1-7.1.9-10.5-.6-22.6-3.6-29.3-8.4-46.4-19.1-68.2-17.6-35.8-47.1-61.2-80.9-69.6-10.5-2.6-27.5-3.3-38.7-1.4zM110.5 397.7c-1.6.2-7.3 1.3-12.5 2.4-39.8 8.9-72.5 37.3-85 74.1-4.1 12.3-7.7 27.8-9.5 41.3-.8 6.6-2 15.4-2.5 19.5-1.5 10.9-1.2 18.7 1 38.2 2.5 21.5 4.1 30.7 8.6 47.8 9.6 36.9 29.7 76.6 54 107 8.8 10.9 27.5 29.6 38.4 38.4 26.9 21.5 59 37.3 91.2 44.7 13.9 3.2 32.8 3 46.3-.5 37.2-9.7 69.2-40.7 83.3-80.7 3.7-10.4 7.6-29.3 9.2-44.6 1.6-14.5.8-51.1-1.4-65.3-13.9-88.1-67.1-164.9-142.2-205.4-18.7-10-27.4-13.2-43.8-16.1-8-1.3-26.9-1.8-35.1-.8zM627 642.1c-78.1 8.5-149.7 41.7-207.8 96.1-15.6 14.6-24.5 24.8-41.4 47.3-42.9 56.9-77.4 117.1-101.1 176-11.3 28.3-18.8 53-30.3 100-4 16.4-4.7 20.8-5.2 32.6-1.6 45.4 21.3 89.6 59.6 114.6 22.9 15 43.1 20.1 76.4 19 39.4-1.2 65.3-7.9 144.8-37.5 60-22.3 87.9-29.8 123.5-33.2 32.2-3 36.8-3.2 52.2-2.1 36.6 2.8 67.2 11.1 121.3 33.1 89.1 36.1 87.4 35.5 104 38.9 21.8 4.5 40.1 6 49.7 4.2 2.6-.6 9.5-1.7 15.3-2.7 31.8-5 60-21 77.4-43.8 14.8-19.3 20.6-39.8 20.6-71.6-.1-37.7-11.4-75.1-40.9-135.5-12.1-24.7-18.5-35.4-49.8-82.9C925 787.9 867.1 725.8 797 681.7c-37.5-23.5-70.5-34.8-116.5-39.7-10.6-1.2-42.7-1.1-53.5.1z"/></svg>