<svg xmlns="http://www.w3.org/2000/svg" height="1000" width="1000"><path d="M21.85 807.354c1.25-6.66 9.02-15.54 27.887-19.425 18.868-3.884 48.841-2.774 76.868-1.942 28.027.833 54.112 1.388 72.15-2.497 18.036-3.886 28.027-12.21 37.46-19.703 9.435-7.492 18.316-14.152 22.756-19.425 4.439-5.272 4.439-9.157 8.878-25.803s13.321-46.069 27.196-73.263c13.874-27.194 32.745-52.17 66.32-90.462 33.577-38.294 81.863-89.91 115.995-122.377 34.132-32.467 54.112-45.787 75.478-67.43 21.367-21.645 44.123-51.616 66.044-84.36 21.922-32.744 43.013-68.265 55.5-86.857 12.488-18.591 16.373-20.256 18.315-23.863 1.941-3.607 1.941-9.159 3.884-18.176 1.942-9.018 5.828-21.507 14.985-30.803 9.157-9.295 23.588-15.4 31.219-19.286 7.63-3.885 8.463-5.55 15.118-8.6 6.656-3.051 19.153-7.494 31.917-8.465 12.764-.972 25.807 1.526 34.825 4.717 9.019 3.191 14.014 7.076 19.425 9.574 5.412 2.497 11.24 3.607 16.372 6.937 5.133 3.33 9.574 8.88 13.042 13.597 3.469 4.718 5.966 8.603 12.21 10.962 6.246 2.358 16.235 3.19 25.947 3.19s19.147-.832 28.304-.693 18.038 1.249 24.281 2.22c6.244.971 9.851 1.804 11.932 4.162 2.08 2.357 2.636 6.243 1.803 11.794-.832 5.55-3.052 12.764-5.133 19.424s-4.023 12.764-7.909 18.454c-3.885 5.689-9.711 10.96-18.037 15.54-8.326 4.579-19.146 8.463-22.892 11.1-3.747 2.636-.417 4.024 4.023 5.134 4.44 1.11 9.99 1.942 15.678 3.746 5.688 1.803 11.516 4.579 16.788 9.018 5.272 4.44 9.99 10.545 12.071 15.262 2.082 4.717 1.527 8.047-.694 9.157-2.22 1.11-6.104.001-10.267-2.08-4.163-2.082-8.602-5.134-10.545-4.857-1.942.277-1.387 3.885-2.775 8.047-1.387 4.163-4.716 8.88-9.434 12.904-4.718 4.024-10.821 7.353-23.033 8.325-12.212.971-30.523-.416-43.843-1.803-13.32-1.388-21.645-2.775-26.085-2.637-4.44.138-4.995 1.803-6.245 7.495-1.25 5.693-3.19 15.398-7.63 25.666-4.44 10.268-11.377 21.089-15.956 29.136-4.579 8.048-6.798 13.32-7.492 19.148-.694 5.829.138 12.21 0 19.286-.14 7.076-1.25 14.845-.555 27.612.693 12.766 3.19 30.523 1.942 50.642-1.249 20.119-6.244 42.595-13.042 66.182-6.8 23.588-15.401 48.284-21.922 62.853-6.521 14.568-10.96 19.008-13.042 22.616-2.082 3.608-1.805 6.382-2.221 18.318-.417 11.936-1.526 33.018-1.249 48.836.278 15.818 1.943 26.362 3.469 41.347 1.526 14.986 2.914 34.409 5.411 48.84 2.498 14.43 6.105 23.864 10.129 32.05 4.024 8.187 8.463 15.124 12.765 19.009 4.302 3.885 8.464 4.718 14.152 5.827 5.688 1.11 12.904 2.498 19.008 5.828 6.105 3.33 11.1 8.602 14.153 13.32 3.052 4.716 4.162 8.879 3.468 10.544-.693 1.665-3.19.833-4.855 1.249-1.665.416-2.498 2.08-8.885 3.469-6.386 1.388-18.31 2.497-29.687 2.636-11.378.139-22.2-.694-28.86-3.608s-9.158-7.908-12.904-14.568c-3.746-6.66-8.741-14.985-13.042-22.894-4.301-7.908-7.909-15.4-12.348-20.257-4.44-4.855-9.713-7.075-12.21-11.655-2.498-4.58-2.22-11.517-2.498-19.98-.277-8.462-1.11-18.453-3.885-32.05-2.775-13.596-7.493-30.803-10.129-40.376-2.636-9.574-3.191-11.516-4.577-11.517-1.387 0-3.608 1.943-7.91 5.69-4.303 3.748-10.682 9.295-13.458 14.29-2.775 4.996-1.943 9.435-1.527 23.45.417 14.017.417 37.6.278 54.25-.139 16.65-.416 26.361.277 33.576.694 7.216 2.359 11.933 5.273 19.703 2.914 7.771 7.076 18.592 10.128 24.558 3.053 5.967 4.996 7.077 10.128 10.823 5.133 3.745 13.46 10.129 18.593 18.037 5.134 7.908 7.076 17.343 6.66 22.615-.415 5.273-3.19 6.383-10.269 7.077-7.079.694-18.45.971-30.522.416-12.072-.555-24.836-1.942-32.745-4.995-7.91-3.053-10.962-7.77-12.765-14.43-1.804-6.66-2.359-15.263-4.024-25.39-1.665-10.128-4.44-21.784-7.492-30.248-3.053-8.463-6.383-13.735-8.741-20.673-2.36-6.937-3.747-15.54-4.024-24.142-.277-8.602.555-17.206.416-28.166-.138-10.96-1.249-24.281-3.745-30.525-2.497-6.243-6.382-5.41-15.68-1.386-9.3 4.025-24.002 11.237-39.68 19.424-15.68 8.186-32.328 17.343-42.318 23.309-9.99 5.966-13.32 8.74-12.903 10.962.416 2.22 4.577 3.885 13.179 4.856 8.602.971 21.646 1.249 35.381 2.498 13.736 1.248 28.166 3.468 37.6 6.937 9.435 3.468 13.875 8.186 16.65 14.152 2.775 5.965 3.885 13.18 1.943 17.343-1.942 4.163-6.936 5.273-15.68 5.828-8.742.555-21.226.555-33.992-.277-12.765-.833-25.806-2.498-40.237-4.163-14.43-1.665-26.157-3.539-39.29-4.805-13.219-1.276-26.766-5.64-39.742-2.812-6.327 1.378-17.391 2.841-17.052 9.308.501 9.54 18.16 6.29 26.458 11.024 5.86 3.343 11.075 6.71 16.208 12.12 5.133 5.412 8.741 11.517 9.296 16.234.556 4.717-1.941 8.047-5.827 10.545-3.886 2.498-9.156 4.162-20.397 3.885-11.241-.278-28.442-2.497-44.398-5.41-15.957-2.915-30.663-6.522-45.232-9.574-14.569-3.053-28.998-5.55-39.265-7.354-10.268-1.804-16.372-2.914-19.148-6.8-2.775-3.886-4.324-10.892-1.11-15.4 19.002-26.656-4.995-44.26-7.353-43.29-2.36.972-5.688 3.746-14.015 8.604-8.328 4.857-21.643 11.792-35.518 16.094-13.876 4.301-28.304 5.966-49.95 5.55-21.646-.416-50.503-2.914-72.426-4.44-21.922-1.526-36.906-2.081-50.088-3.052-13.181-.972-24.558-2.359-32.883-5.273-8.326-2.914-13.598-7.353-12.349-14.014z" fill="#1a1a1a"/></svg>